<?xml version="1.0" encoding="UTF-8"?>
<svg xmlns="http://www.w3.org/2000/svg" xmlns:xlink="http://www.w3.org/1999/xlink" width="175px" height="48px" viewBox="0 0 174 48" version="1.1">
<defs>
<linearGradient id="linear0" gradientUnits="userSpaceOnUse" x1="726.9235" y1="-598.7584" x2="336.0826" y2="-959.4103" gradientTransform="matrix(0.0473276,0,0,-0.0474842,0,-11.61883)">
<stop offset="0" style="stop-color:rgb(45.882353%,32.54902%,98.823529%);stop-opacity:1;"/>
<stop offset="1" style="stop-color:rgb(35.686275%,47.843137%,96.078431%);stop-opacity:1;"/>
</linearGradient>
</defs>
<g id="surface1">
<path style=" stroke:none;fill-rule:nonzero;fill:rgb(10.980392%,18.431373%,32.941176%);fill-opacity:1;" d="M 53.0625 38.242188 C 52.945312 38.242188 52.855469 38.210938 52.796875 38.152344 C 52.734375 38.089844 52.707031 38.003906 52.707031 37.886719 L 52.707031 33.011719 C 52.707031 32.894531 52.734375 32.804688 52.796875 32.746094 C 52.855469 32.683594 52.945312 32.65625 53.0625 32.65625 L 54.933594 32.65625 C 55.316406 32.65625 55.644531 32.710938 55.910156 32.824219 C 56.175781 32.9375 56.378906 33.105469 56.523438 33.320312 C 56.664062 33.535156 56.734375 33.800781 56.734375 34.113281 C 56.734375 34.460938 56.632812 34.753906 56.429688 34.984375 C 56.226562 35.21875 55.953125 35.371094 55.605469 35.445312 L 55.605469 35.332031 C 56 35.378906 56.308594 35.523438 56.535156 35.761719 C 56.757812 36 56.867188 36.3125 56.867188 36.703125 C 56.867188 37.199219 56.707031 37.582031 56.386719 37.84375 C 56.066406 38.109375 55.613281 38.242188 55.027344 38.242188 Z M 53.335938 35.152344 L 54.839844 35.152344 C 55.25 35.152344 55.5625 35.066406 55.773438 34.898438 C 55.988281 34.730469 56.09375 34.484375 56.09375 34.167969 C 56.09375 33.839844 55.988281 33.59375 55.773438 33.425781 C 55.5625 33.261719 55.25 33.175781 54.839844 33.175781 L 53.335938 33.175781 Z M 53.335938 37.71875 L 54.964844 37.71875 C 55.386719 37.71875 55.703125 37.632812 55.914062 37.464844 C 56.125 37.296875 56.230469 37.039062 56.230469 36.695312 C 56.230469 36.347656 56.125 36.089844 55.914062 35.921875 C 55.703125 35.757812 55.386719 35.675781 54.964844 35.675781 L 53.335938 35.675781 Z M 53.335938 37.71875 "/>
<path style=" stroke:none;fill-rule:nonzero;fill:rgb(10.980392%,18.431373%,32.941176%);fill-opacity:1;" d="M 62.351562 38.242188 C 62.234375 38.242188 62.148438 38.210938 62.085938 38.152344 C 62.027344 38.089844 61.996094 38.003906 61.996094 37.886719 L 61.996094 33.011719 C 61.996094 32.894531 62.027344 32.804688 62.085938 32.746094 C 62.148438 32.683594 62.234375 32.65625 62.351562 32.65625 L 65.289062 32.65625 C 65.378906 32.65625 65.449219 32.679688 65.496094 32.726562 C 65.542969 32.773438 65.566406 32.839844 65.566406 32.921875 C 65.566406 33.011719 65.542969 33.082031 65.496094 33.128906 C 65.449219 33.175781 65.378906 33.199219 65.289062 33.199219 L 62.628906 33.199219 L 62.628906 35.136719 L 65.125 35.136719 C 65.214844 35.136719 65.28125 35.15625 65.332031 35.203125 C 65.378906 35.246094 65.402344 35.316406 65.402344 35.40625 C 65.402344 35.496094 65.378906 35.5625 65.332031 35.609375 C 65.28125 35.660156 65.214844 35.683594 65.125 35.683594 L 62.628906 35.683594 L 62.628906 37.695312 L 65.289062 37.695312 C 65.378906 37.695312 65.449219 37.71875 65.496094 37.765625 C 65.542969 37.8125 65.566406 37.878906 65.566406 37.964844 C 65.566406 38.054688 65.542969 38.125 65.496094 38.171875 C 65.449219 38.21875 65.378906 38.242188 65.289062 38.242188 Z M 62.351562 38.242188 "/>
<path style=" stroke:none;fill-rule:nonzero;fill:rgb(10.980392%,18.431373%,32.941176%);fill-opacity:1;" d="M 72.21875 38.296875 C 72.113281 38.296875 72.03125 38.265625 71.976562 38.207031 C 71.921875 38.144531 71.894531 38.058594 71.894531 37.949219 L 71.894531 35.347656 L 72.035156 35.800781 L 70.054688 33.058594 C 70.007812 32.988281 69.984375 32.917969 69.988281 32.847656 C 69.988281 32.777344 70.015625 32.71875 70.070312 32.667969 C 70.121094 32.621094 70.191406 32.597656 70.273438 32.597656 C 70.347656 32.597656 70.414062 32.617188 70.472656 32.648438 C 70.53125 32.683594 70.582031 32.738281 70.628906 32.8125 L 72.3125 35.144531 L 72.148438 35.144531 L 73.832031 32.8125 C 73.886719 32.734375 73.941406 32.675781 73.996094 32.644531 C 74.046875 32.613281 74.113281 32.597656 74.1875 32.597656 C 74.269531 32.597656 74.335938 32.621094 74.382812 32.664062 C 74.429688 32.710938 74.457031 32.769531 74.457031 32.839844 C 74.460938 32.910156 74.4375 32.988281 74.382812 33.066406 L 72.410156 35.800781 L 72.542969 35.347656 L 72.542969 37.949219 C 72.542969 38.179688 72.433594 38.296875 72.21875 38.296875 Z M 72.21875 38.296875 "/>
<path style=" stroke:none;fill-rule:nonzero;fill:rgb(10.980392%,18.431373%,32.941176%);fill-opacity:1;" d="M 81.546875 38.3125 C 81.03125 38.3125 80.582031 38.195312 80.203125 37.960938 C 79.820312 37.726562 79.523438 37.394531 79.316406 36.964844 C 79.109375 36.539062 79.003906 36.03125 79.003906 35.445312 C 79.003906 35 79.0625 34.601562 79.183594 34.25 C 79.300781 33.898438 79.472656 33.601562 79.691406 33.355469 C 79.914062 33.109375 80.179688 32.917969 80.496094 32.785156 C 80.808594 32.648438 81.160156 32.582031 81.546875 32.582031 C 82.074219 32.582031 82.53125 32.699219 82.910156 32.929688 C 83.292969 33.164062 83.589844 33.492188 83.796875 33.917969 C 84.003906 34.34375 84.109375 34.847656 84.109375 35.4375 C 84.109375 35.878906 84.046875 36.277344 83.925781 36.632812 C 83.804688 36.988281 83.632812 37.289062 83.414062 37.535156 C 83.191406 37.785156 82.925781 37.976562 82.609375 38.113281 C 82.296875 38.246094 81.945312 38.3125 81.546875 38.3125 Z M 81.546875 37.734375 C 81.949219 37.734375 82.289062 37.644531 82.5625 37.464844 C 82.839844 37.285156 83.050781 37.023438 83.199219 36.679688 C 83.347656 36.335938 83.421875 35.925781 83.421875 35.445312 C 83.421875 34.71875 83.257812 34.160156 82.933594 33.761719 C 82.609375 33.359375 82.148438 33.160156 81.546875 33.160156 C 81.160156 33.160156 80.824219 33.25 80.546875 33.429688 C 80.273438 33.609375 80.058594 33.871094 79.914062 34.210938 C 79.765625 34.554688 79.691406 34.964844 79.691406 35.445312 C 79.691406 36.164062 79.855469 36.726562 80.179688 37.128906 C 80.507812 37.53125 80.964844 37.734375 81.546875 37.734375 Z M 81.546875 37.734375 "/>
<path style=" stroke:none;fill-rule:nonzero;fill:rgb(10.980392%,18.431373%,32.941176%);fill-opacity:1;" d="M 89.527344 38.296875 C 89.429688 38.296875 89.351562 38.269531 89.300781 38.214844 C 89.246094 38.160156 89.21875 38.078125 89.21875 37.972656 L 89.21875 32.933594 C 89.21875 32.828125 89.246094 32.746094 89.300781 32.6875 C 89.351562 32.628906 89.421875 32.597656 89.503906 32.597656 C 89.589844 32.597656 89.652344 32.613281 89.691406 32.644531 C 89.730469 32.671875 89.777344 32.722656 89.828125 32.796875 L 93.273438 37.402344 L 93.082031 37.402344 L 93.082031 32.917969 C 93.082031 32.816406 93.109375 32.738281 93.160156 32.683594 C 93.214844 32.625 93.292969 32.597656 93.390625 32.597656 C 93.484375 32.597656 93.558594 32.625 93.609375 32.683594 C 93.660156 32.738281 93.683594 32.816406 93.683594 32.917969 L 93.683594 37.980469 C 93.683594 38.082031 93.660156 38.160156 93.617188 38.214844 C 93.570312 38.269531 93.507812 38.296875 93.421875 38.296875 C 93.34375 38.296875 93.28125 38.28125 93.234375 38.25 C 93.1875 38.21875 93.136719 38.167969 93.082031 38.101562 L 89.648438 33.496094 L 89.828125 33.496094 L 89.828125 37.972656 C 89.828125 38.078125 89.800781 38.160156 89.75 38.214844 C 89.695312 38.269531 89.621094 38.296875 89.527344 38.296875 Z M 89.527344 38.296875 "/>
<path style=" stroke:none;fill-rule:nonzero;fill:rgb(10.980392%,18.431373%,32.941176%);fill-opacity:1;" d="M 99.371094 38.242188 C 99.257812 38.242188 99.167969 38.210938 99.105469 38.152344 C 99.046875 38.089844 99.015625 38.003906 99.015625 37.886719 L 99.015625 33.011719 C 99.015625 32.894531 99.046875 32.804688 99.105469 32.746094 C 99.167969 32.683594 99.257812 32.65625 99.371094 32.65625 L 100.898438 32.65625 C 101.796875 32.65625 102.492188 32.890625 102.984375 33.367188 C 103.472656 33.84375 103.71875 34.535156 103.71875 35.445312 C 103.71875 35.898438 103.65625 36.300781 103.53125 36.644531 C 103.40625 36.992188 103.226562 37.285156 102.984375 37.519531 C 102.738281 37.757812 102.445312 37.9375 102.097656 38.058594 C 101.75 38.179688 101.351562 38.242188 100.898438 38.242188 Z M 99.664062 37.6875 L 100.847656 37.6875 C 101.21875 37.6875 101.539062 37.640625 101.808594 37.542969 C 102.078125 37.449219 102.308594 37.308594 102.488281 37.125 C 102.671875 36.941406 102.804688 36.707031 102.894531 36.421875 C 102.984375 36.140625 103.03125 35.8125 103.03125 35.445312 C 103.03125 34.699219 102.847656 34.140625 102.484375 33.769531 C 102.121094 33.394531 101.574219 33.210938 100.847656 33.210938 L 99.664062 33.210938 Z M 99.664062 37.6875 "/>
<path style=" stroke:none;fill-rule:nonzero;fill:rgb(10.980392%,18.431373%,32.941176%);fill-opacity:1;" d="M 117.226562 38.3125 C 116.679688 38.3125 116.210938 38.199219 115.820312 37.964844 C 115.429688 37.734375 115.132812 37.402344 114.921875 36.972656 C 114.714844 36.546875 114.613281 36.035156 114.613281 35.445312 C 114.613281 35 114.671875 34.601562 114.789062 34.25 C 114.90625 33.898438 115.078125 33.601562 115.304688 33.355469 C 115.527344 33.109375 115.800781 32.917969 116.128906 32.785156 C 116.453125 32.648438 116.820312 32.582031 117.226562 32.582031 C 117.554688 32.582031 117.863281 32.628906 118.160156 32.722656 C 118.453125 32.8125 118.710938 32.949219 118.925781 33.128906 C 118.992188 33.183594 119.039062 33.242188 119.0625 33.308594 C 119.085938 33.375 119.089844 33.4375 119.070312 33.5 C 119.050781 33.558594 119.019531 33.609375 118.976562 33.648438 C 118.929688 33.6875 118.878906 33.707031 118.816406 33.707031 C 118.75 33.707031 118.679688 33.683594 118.601562 33.628906 C 118.410156 33.476562 118.203125 33.363281 117.976562 33.289062 C 117.75 33.214844 117.503906 33.175781 117.242188 33.175781 C 116.828125 33.175781 116.472656 33.265625 116.183594 33.441406 C 115.894531 33.621094 115.675781 33.878906 115.527344 34.214844 C 115.378906 34.554688 115.308594 34.964844 115.308594 35.445312 C 115.308594 35.925781 115.382812 36.335938 115.527344 36.675781 C 115.675781 37.019531 115.894531 37.277344 116.183594 37.453125 C 116.472656 37.628906 116.828125 37.71875 117.242188 37.71875 C 117.5 37.71875 117.746094 37.679688 117.976562 37.605469 C 118.207031 37.527344 118.421875 37.414062 118.617188 37.257812 C 118.695312 37.207031 118.765625 37.179688 118.832031 37.183594 C 118.894531 37.1875 118.945312 37.207031 118.988281 37.242188 C 119.03125 37.28125 119.0625 37.328125 119.078125 37.386719 C 119.097656 37.445312 119.097656 37.503906 119.078125 37.566406 C 119.0625 37.632812 119.019531 37.6875 118.957031 37.734375 C 118.734375 37.925781 118.476562 38.070312 118.179688 38.167969 C 117.878906 38.265625 117.5625 38.3125 117.226562 38.3125 Z M 117.226562 38.3125 "/>
<path style=" stroke:none;fill-rule:nonzero;fill:rgb(10.980392%,18.431373%,32.941176%);fill-opacity:1;" d="M 124.40625 38.296875 C 124.300781 38.296875 124.222656 38.265625 124.167969 38.207031 C 124.113281 38.144531 124.085938 38.0625 124.085938 37.957031 L 124.085938 32.988281 C 124.085938 32.875 124.113281 32.792969 124.171875 32.738281 C 124.230469 32.683594 124.3125 32.65625 124.414062 32.65625 L 126.289062 32.65625 C 126.882812 32.65625 127.339844 32.792969 127.664062 33.074219 C 127.984375 33.355469 128.144531 33.753906 128.144531 34.273438 C 128.144531 34.597656 128.074219 34.882812 127.925781 35.125 C 127.78125 35.363281 127.570312 35.546875 127.292969 35.671875 C 127.011719 35.796875 126.675781 35.855469 126.289062 35.855469 L 126.367188 35.753906 L 126.523438 35.753906 C 126.730469 35.753906 126.910156 35.804688 127.0625 35.914062 C 127.214844 36.019531 127.355469 36.1875 127.480469 36.417969 L 128.238281 37.839844 C 128.28125 37.914062 128.300781 37.984375 128.296875 38.054688 C 128.296875 38.128906 128.269531 38.1875 128.222656 38.230469 C 128.175781 38.273438 128.105469 38.296875 128.019531 38.296875 C 127.929688 38.296875 127.855469 38.277344 127.796875 38.234375 C 127.738281 38.191406 127.6875 38.132812 127.648438 38.050781 L 126.785156 36.453125 C 126.664062 36.222656 126.523438 36.074219 126.367188 35.996094 C 126.210938 35.917969 126 35.878906 125.742188 35.878906 L 124.730469 35.878906 L 124.730469 37.957031 C 124.730469 38.0625 124.703125 38.144531 124.652344 38.207031 C 124.601562 38.265625 124.519531 38.296875 124.40625 38.296875 Z M 124.730469 35.367188 L 126.191406 35.367188 C 126.625 35.367188 126.949219 35.273438 127.171875 35.09375 C 127.394531 34.910156 127.503906 34.636719 127.503906 34.269531 C 127.503906 33.917969 127.394531 33.648438 127.171875 33.46875 C 126.953125 33.285156 126.625 33.195312 126.191406 33.195312 L 124.730469 33.195312 Z M 124.730469 35.367188 "/>
<path style=" stroke:none;fill-rule:nonzero;fill:rgb(10.980392%,18.431373%,32.941176%);fill-opacity:1;" d="M 134.984375 38.296875 C 134.878906 38.296875 134.800781 38.265625 134.746094 38.207031 C 134.691406 38.144531 134.664062 38.058594 134.664062 37.949219 L 134.664062 35.347656 L 134.804688 35.800781 L 132.820312 33.058594 C 132.773438 32.988281 132.75 32.917969 132.753906 32.847656 C 132.757812 32.777344 132.785156 32.71875 132.835938 32.667969 C 132.890625 32.621094 132.957031 32.597656 133.042969 32.597656 C 133.117188 32.597656 133.183594 32.617188 133.238281 32.648438 C 133.296875 32.683594 133.351562 32.738281 133.398438 32.8125 L 135.082031 35.144531 L 134.914062 35.144531 L 136.597656 32.8125 C 136.65625 32.734375 136.710938 32.675781 136.761719 32.644531 C 136.816406 32.613281 136.878906 32.597656 136.953125 32.597656 C 137.039062 32.597656 137.101562 32.621094 137.152344 32.664062 C 137.199219 32.710938 137.222656 32.769531 137.226562 32.839844 C 137.230469 32.910156 137.203125 32.988281 137.152344 33.066406 L 135.175781 35.800781 L 135.308594 35.347656 L 135.308594 37.949219 C 135.308594 38.179688 135.203125 38.296875 134.984375 38.296875 Z M 134.984375 38.296875 "/>
<path style=" stroke:none;fill-rule:nonzero;fill:rgb(10.980392%,18.431373%,32.941176%);fill-opacity:1;" d="M 142.300781 38.296875 C 142.195312 38.296875 142.117188 38.265625 142.058594 38.207031 C 142.003906 38.144531 141.976562 38.0625 141.976562 37.957031 L 141.976562 32.988281 C 141.976562 32.875 142.007812 32.792969 142.066406 32.738281 C 142.121094 32.683594 142.203125 32.65625 142.308594 32.65625 L 144.183594 32.65625 C 144.777344 32.65625 145.234375 32.800781 145.554688 33.09375 C 145.878906 33.386719 146.039062 33.800781 146.039062 34.335938 C 146.039062 34.863281 145.878906 35.273438 145.554688 35.570312 C 145.234375 35.867188 144.777344 36.015625 144.183594 36.015625 L 142.625 36.015625 L 142.625 37.957031 C 142.625 38.0625 142.597656 38.144531 142.546875 38.207031 C 142.492188 38.265625 142.414062 38.296875 142.300781 38.296875 Z M 142.625 35.46875 L 144.101562 35.46875 C 144.53125 35.46875 144.851562 35.371094 145.070312 35.179688 C 145.289062 34.988281 145.398438 34.703125 145.398438 34.335938 C 145.398438 33.960938 145.289062 33.675781 145.070312 33.484375 C 144.851562 33.289062 144.53125 33.195312 144.101562 33.195312 L 142.625 33.195312 Z M 142.625 35.46875 "/>
<path style=" stroke:none;fill-rule:nonzero;fill:rgb(10.980392%,18.431373%,32.941176%);fill-opacity:1;" d="M 152.621094 38.296875 C 152.519531 38.296875 152.441406 38.265625 152.382812 38.207031 C 152.324219 38.144531 152.296875 38.0625 152.296875 37.957031 L 152.296875 33.21875 L 150.515625 33.21875 C 150.421875 33.21875 150.347656 33.191406 150.296875 33.136719 C 150.242188 33.085938 150.21875 33.015625 150.21875 32.933594 C 150.21875 32.84375 150.242188 32.773438 150.296875 32.726562 C 150.347656 32.679688 150.421875 32.65625 150.515625 32.65625 L 154.726562 32.65625 C 154.824219 32.65625 154.898438 32.679688 154.949219 32.726562 C 155 32.773438 155.027344 32.84375 155.027344 32.933594 C 155.027344 33.023438 155 33.09375 154.949219 33.140625 C 154.898438 33.191406 154.824219 33.21875 154.726562 33.21875 L 152.949219 33.21875 L 152.949219 37.957031 C 152.949219 38.0625 152.921875 38.144531 152.867188 38.207031 C 152.8125 38.265625 152.730469 38.296875 152.621094 38.296875 Z M 152.621094 38.296875 "/>
<path style=" stroke:none;fill-rule:nonzero;fill:rgb(10.980392%,18.431373%,32.941176%);fill-opacity:1;" d="M 161.972656 38.3125 C 161.457031 38.3125 161.007812 38.195312 160.625 37.960938 C 160.246094 37.726562 159.949219 37.394531 159.742188 36.964844 C 159.53125 36.539062 159.429688 36.03125 159.429688 35.445312 C 159.429688 35 159.488281 34.601562 159.605469 34.25 C 159.726562 33.898438 159.894531 33.601562 160.117188 33.355469 C 160.339844 33.109375 160.605469 32.917969 160.917969 32.785156 C 161.230469 32.648438 161.582031 32.582031 161.972656 32.582031 C 162.5 32.582031 162.953125 32.699219 163.335938 32.929688 C 163.71875 33.164062 164.011719 33.492188 164.21875 33.917969 C 164.429688 34.34375 164.53125 34.847656 164.53125 35.4375 C 164.53125 35.878906 164.472656 36.277344 164.351562 36.632812 C 164.230469 36.988281 164.058594 37.289062 163.835938 37.535156 C 163.617188 37.785156 163.347656 37.976562 163.035156 38.113281 C 162.722656 38.246094 162.367188 38.3125 161.972656 38.3125 Z M 161.972656 37.734375 C 162.375 37.734375 162.710938 37.644531 162.988281 37.464844 C 163.265625 37.285156 163.476562 37.023438 163.625 36.679688 C 163.773438 36.335938 163.84375 35.925781 163.84375 35.445312 C 163.84375 34.71875 163.683594 34.160156 163.359375 33.761719 C 163.035156 33.359375 162.574219 33.160156 161.972656 33.160156 C 161.582031 33.160156 161.25 33.25 160.972656 33.429688 C 160.695312 33.609375 160.484375 33.871094 160.335938 34.210938 C 160.1875 34.554688 160.117188 34.964844 160.117188 35.445312 C 160.117188 36.164062 160.277344 36.726562 160.605469 37.128906 C 160.933594 37.53125 161.386719 37.734375 161.972656 37.734375 Z M 161.972656 37.734375 "/>
<path style=" stroke:none;fill-rule:nonzero;fill:rgb(18.039216%,24.705882%,41.568627%);fill-opacity:1;" d="M 53.0625 28.601562 C 52.75 28.601562 52.492188 28.519531 52.289062 28.355469 C 52.089844 28.191406 51.972656 27.980469 51.941406 27.722656 C 51.910156 27.464844 51.996094 27.203125 52.199219 26.9375 L 57.707031 19.511719 L 57.707031 20.496094 L 52.5 13.46875 C 52.300781 13.1875 52.210938 12.914062 52.234375 12.648438 C 52.257812 12.382812 52.371094 12.167969 52.570312 12.003906 C 52.773438 11.839844 53.023438 11.757812 53.320312 11.757812 C 53.566406 11.757812 53.789062 11.816406 53.984375 11.933594 C 54.179688 12.050781 54.378906 12.25 54.578125 12.53125 L 59.109375 18.761719 L 58.363281 18.761719 L 62.84375 12.53125 C 63.046875 12.25 63.246094 12.050781 63.4375 11.933594 C 63.632812 11.816406 63.863281 11.757812 64.128906 11.757812 C 64.4375 11.757812 64.695312 11.839844 64.898438 12.003906 C 65.101562 12.167969 65.214844 12.378906 65.238281 12.636719 C 65.261719 12.894531 65.164062 13.171875 64.945312 13.46875 L 59.738281 20.496094 L 59.738281 19.511719 L 65.226562 26.9375 C 65.425781 27.203125 65.515625 27.464844 65.492188 27.722656 C 65.46875 27.980469 65.355469 28.191406 65.15625 28.355469 C 64.953125 28.519531 64.6875 28.601562 64.359375 28.601562 C 64.128906 28.601562 63.910156 28.539062 63.707031 28.414062 C 63.503906 28.289062 63.296875 28.09375 63.078125 27.828125 L 58.269531 21.222656 L 59.15625 21.222656 L 54.371094 27.828125 C 54.167969 28.09375 53.960938 28.289062 53.75 28.414062 C 53.539062 28.539062 53.308594 28.601562 53.0625 28.601562 Z M 53.0625 28.601562 "/>
<path style=" stroke:none;fill-rule:nonzero;fill:rgb(18.039216%,24.705882%,41.568627%);fill-opacity:1;" d="M 78.042969 28.648438 C 76.375 28.648438 74.953125 28.304688 73.769531 27.617188 C 72.585938 26.929688 71.679688 25.949219 71.050781 24.675781 C 70.417969 23.402344 70.105469 21.902344 70.105469 20.167969 C 70.105469 18.871094 70.28125 17.703125 70.640625 16.664062 C 71 15.628906 71.515625 14.738281 72.191406 13.996094 C 72.871094 13.253906 73.703125 12.6875 74.691406 12.296875 C 75.679688 11.90625 76.796875 11.710938 78.042969 11.710938 C 78.960938 11.710938 79.84375 11.835938 80.691406 12.085938 C 81.539062 12.335938 82.273438 12.695312 82.898438 13.164062 C 83.164062 13.335938 83.335938 13.542969 83.421875 13.785156 C 83.507812 14.027344 83.523438 14.257812 83.46875 14.476562 C 83.414062 14.695312 83.308594 14.878906 83.15625 15.027344 C 83 15.175781 82.800781 15.257812 82.558594 15.269531 C 82.316406 15.289062 82.058594 15.203125 81.777344 15.011719 C 81.265625 14.625 80.695312 14.335938 80.074219 14.148438 C 79.449219 13.960938 78.796875 13.867188 78.113281 13.867188 C 76.929688 13.867188 75.933594 14.113281 75.125 14.605469 C 74.3125 15.097656 73.699219 15.808594 73.277344 16.746094 C 72.859375 17.683594 72.648438 18.824219 72.648438 20.167969 C 72.648438 21.511719 72.859375 22.652344 73.277344 23.597656 C 73.699219 24.542969 74.3125 25.261719 75.125 25.753906 C 75.933594 26.246094 76.929688 26.492188 78.113281 26.492188 C 78.796875 26.492188 79.453125 26.394531 80.085938 26.199219 C 80.714844 26.003906 81.308594 25.710938 81.871094 25.320312 C 82.152344 25.148438 82.402344 25.070312 82.628906 25.085938 C 82.855469 25.101562 83.046875 25.179688 83.199219 25.320312 C 83.355469 25.460938 83.460938 25.636719 83.515625 25.847656 C 83.570312 26.058594 83.5625 26.277344 83.492188 26.503906 C 83.421875 26.730469 83.269531 26.921875 83.039062 27.078125 C 82.398438 27.59375 81.644531 27.984375 80.773438 28.246094 C 79.902344 28.515625 78.992188 28.648438 78.042969 28.648438 Z M 78.042969 28.648438 "/>
<path style=" stroke:none;fill-rule:nonzero;fill:rgb(18.039216%,24.705882%,41.568627%);fill-opacity:1;" d="M 90.089844 28.4375 C 89.667969 28.4375 89.34375 28.324219 89.121094 28.097656 C 88.894531 27.871094 88.78125 27.546875 88.78125 27.125 L 88.78125 13.234375 C 88.78125 12.8125 88.894531 12.488281 89.121094 12.261719 C 89.34375 12.035156 89.667969 11.921875 90.089844 11.921875 L 98.609375 11.921875 C 98.9375 11.921875 99.183594 12.003906 99.355469 12.167969 C 99.527344 12.332031 99.613281 12.570312 99.613281 12.882812 C 99.613281 13.210938 99.527344 13.460938 99.355469 13.632812 C 99.183594 13.804688 98.9375 13.890625 98.609375 13.890625 L 91.113281 13.890625 L 91.113281 19.066406 L 98.09375 19.066406 C 98.4375 19.066406 98.691406 19.152344 98.855469 19.324219 C 99.015625 19.496094 99.097656 19.738281 99.097656 20.050781 C 99.097656 20.378906 99.015625 20.625 98.855469 20.789062 C 98.691406 20.953125 98.4375 21.035156 98.09375 21.035156 L 91.113281 21.035156 L 91.113281 26.46875 L 98.609375 26.46875 C 98.9375 26.46875 99.183594 26.554688 99.355469 26.726562 C 99.527344 26.898438 99.613281 27.140625 99.613281 27.453125 C 99.613281 27.78125 99.527344 28.027344 99.355469 28.191406 C 99.183594 28.355469 98.9375 28.4375 98.609375 28.4375 Z M 90.089844 28.4375 "/>
<path style=" stroke:none;fill-rule:nonzero;fill:rgb(18.039216%,24.705882%,41.568627%);fill-opacity:1;" d="M 106.101562 28.4375 C 105.714844 28.4375 105.410156 28.328125 105.191406 28.109375 C 104.972656 27.890625 104.867188 27.585938 104.867188 27.195312 L 104.867188 13.070312 C 104.867188 12.664062 104.972656 12.355469 105.179688 12.144531 C 105.390625 11.933594 105.691406 11.828125 106.078125 11.828125 C 106.46875 11.828125 106.769531 11.933594 106.976562 12.144531 C 107.1875 12.355469 107.292969 12.664062 107.292969 13.070312 L 107.292969 26.351562 L 114.53125 26.351562 C 114.875 26.351562 115.136719 26.441406 115.324219 26.621094 C 115.511719 26.800781 115.605469 27.054688 115.605469 27.382812 C 115.605469 27.710938 115.511719 27.96875 115.324219 28.15625 C 115.136719 28.34375 114.875 28.4375 114.53125 28.4375 Z M 106.101562 28.4375 "/>
<path style=" stroke:none;fill-rule:nonzero;fill:rgb(18.039216%,24.705882%,41.568627%);fill-opacity:1;" d="M 121.300781 28.601562 C 120.914062 28.601562 120.613281 28.492188 120.402344 28.273438 C 120.191406 28.054688 120.085938 27.75 120.085938 27.359375 L 120.085938 13.164062 C 120.085938 12.757812 120.195312 12.449219 120.414062 12.238281 C 120.632812 12.027344 120.933594 11.921875 121.324219 11.921875 L 126.90625 11.921875 C 128.679688 11.921875 130.046875 12.363281 131.015625 13.246094 C 131.980469 14.128906 132.460938 15.367188 132.460938 16.957031 C 132.460938 18.566406 131.976562 19.8125 131.015625 20.695312 C 130.046875 21.578125 128.679688 22.019531 126.90625 22.019531 L 122.515625 22.019531 L 122.515625 27.359375 C 122.515625 27.75 122.414062 28.054688 122.210938 28.273438 C 122.007812 28.492188 121.707031 28.601562 121.300781 28.601562 Z M 122.515625 20.074219 L 126.554688 20.074219 C 127.722656 20.074219 128.605469 19.8125 129.203125 19.289062 C 129.804688 18.765625 130.101562 17.988281 130.101562 16.957031 C 130.101562 15.941406 129.804688 15.175781 129.203125 14.652344 C 128.605469 14.128906 127.722656 13.867188 126.554688 13.867188 L 122.515625 13.867188 Z M 122.515625 20.074219 "/>
<path style=" stroke:none;fill-rule:nonzero;fill:rgb(18.039216%,24.705882%,41.568627%);fill-opacity:1;" d="M 137.316406 28.601562 C 137.003906 28.601562 136.757812 28.53125 136.570312 28.390625 C 136.382812 28.25 136.273438 28.0625 136.242188 27.828125 C 136.210938 27.59375 136.257812 27.328125 136.382812 27.03125 L 142.710938 12.789062 C 142.863281 12.414062 143.0625 12.148438 143.304688 11.992188 C 143.546875 11.835938 143.8125 11.757812 144.109375 11.757812 C 144.390625 11.757812 144.652344 11.835938 144.890625 11.992188 C 145.132812 12.148438 145.332031 12.414062 145.488281 12.789062 L 151.816406 27.03125 C 151.953125 27.328125 152.007812 27.597656 151.976562 27.839844 C 151.945312 28.082031 151.84375 28.269531 151.675781 28.402344 C 151.503906 28.535156 151.261719 28.601562 150.949219 28.601562 C 150.609375 28.601562 150.335938 28.515625 150.132812 28.34375 C 149.929688 28.171875 149.753906 27.90625 149.597656 27.546875 L 147.960938 23.75 L 149.058594 24.40625 L 139.113281 24.40625 L 140.1875 23.75 L 138.578125 27.546875 C 138.421875 27.921875 138.25 28.191406 138.0625 28.355469 C 137.875 28.519531 137.628906 28.601562 137.316406 28.601562 Z M 144.0625 14.617188 L 140.539062 23 L 139.953125 22.441406 L 148.195312 22.441406 L 147.660156 23 L 144.109375 14.617188 Z M 144.0625 14.617188 "/>
<path style=" stroke:none;fill-rule:nonzero;fill:rgb(18.039216%,24.705882%,41.568627%);fill-opacity:1;" d="M 162.085938 28.601562 C 161.699219 28.601562 161.398438 28.492188 161.1875 28.273438 C 160.976562 28.054688 160.871094 27.742188 160.871094 27.335938 L 160.871094 19.910156 L 161.410156 21.457031 L 155.644531 13.421875 C 155.472656 13.1875 155.394531 12.941406 155.410156 12.683594 C 155.425781 12.425781 155.53125 12.207031 155.726562 12.027344 C 155.917969 11.847656 156.179688 11.757812 156.507812 11.757812 C 156.757812 11.757812 156.984375 11.820312 157.195312 11.945312 C 157.40625 12.070312 157.605469 12.265625 157.792969 12.53125 L 162.414062 18.972656 L 161.855469 18.972656 L 166.476562 12.53125 C 166.679688 12.25 166.875 12.050781 167.058594 11.933594 C 167.246094 11.816406 167.480469 11.757812 167.761719 11.757812 C 168.085938 11.757812 168.339844 11.839844 168.519531 12.003906 C 168.699219 12.167969 168.792969 12.378906 168.800781 12.636719 C 168.808594 12.894531 168.710938 13.164062 168.507812 13.445312 L 162.789062 21.457031 L 163.277344 19.910156 L 163.277344 27.335938 C 163.277344 28.179688 162.878906 28.601562 162.085938 28.601562 Z M 162.085938 28.601562 "/>
<path style=" stroke:none;fill-rule:nonzero;fill:url(#linear0);" d="M 26.640625 3.828125 C 37.746094 3.828125 46.746094 12.859375 46.746094 24 C 46.746094 35.140625 37.746094 44.171875 26.640625 44.171875 C 15.535156 44.171875 6.535156 35.140625 6.535156 24 C 6.535156 12.859375 15.535156 3.828125 26.640625 3.828125 Z M 26.640625 3.828125 "/>
<path style=" stroke:none;fill-rule:evenodd;fill:rgb(100%,100%,100%);fill-opacity:1;" d="M 31.785156 15.300781 C 31.628906 15.34375 30.261719 16.640625 28.753906 18.1875 C 26.792969 20.191406 26.011719 21.097656 26.03125 21.339844 C 26.074219 21.910156 27.878906 26.078125 28.082031 26.078125 C 28.1875 26.078125 28.839844 25.472656 29.535156 24.734375 C 30.226562 23.992188 32.535156 21.609375 34.664062 19.441406 C 36.792969 17.269531 38.535156 15.425781 38.535156 15.339844 C 38.535156 15.191406 32.351562 15.152344 31.785156 15.300781 Z M 17.703125 16.753906 C 17.804688 17.164062 18.035156 17.734375 19.863281 22.074219 C 20.289062 23.089844 20.710938 24.117188 20.804688 24.359375 C 20.894531 24.601562 21.035156 24.796875 21.113281 24.796875 C 21.191406 24.796875 22.0625 23.960938 23.046875 22.941406 C 25.019531 20.898438 25.015625 20.914062 24.375 19.578125 C 24.070312 18.9375 23.707031 18.753906 19.167969 16.949219 L 17.59375 16.324219 Z M 19.808594 27.242188 C 16.953125 30.167969 14.675781 32.625 14.75 32.703125 C 14.820312 32.777344 16.402344 32.8125 18.261719 32.78125 L 21.640625 32.726562 L 24.417969 29.84375 C 25.945312 28.257812 27.199219 26.832031 27.199219 26.679688 C 27.203125 26.433594 26.746094 25.269531 25.597656 22.597656 C 25.4375 22.222656 25.238281 21.917969 25.152344 21.917969 C 25.070312 21.914062 22.664062 24.3125 19.808594 27.242188 Z M 30.160156 25.042969 C 29.152344 26.097656 28.332031 27.03125 28.332031 27.121094 C 28.335938 27.207031 28.53125 27.675781 28.769531 28.15625 L 29.199219 29.03125 L 32.222656 30.277344 C 34.871094 31.367188 35.660156 31.644531 35.660156 31.480469 C 35.660156 31.460938 35.121094 30.144531 34.457031 28.558594 C 33.792969 26.976562 33.066406 25.210938 32.835938 24.636719 C 32.136719 22.878906 32.238281 22.867188 30.160156 25.042969 Z M 30.160156 25.042969 "/>
</g>
</svg>
