<svg width="37" height="36" viewBox="0 0 37 36" fill="none" xmlns="http://www.w3.org/2000/svg">
<path d="M12.0635 31.5H6.06348C5.66565 31.5 5.28412 31.342 5.00282 31.0607C4.72151 30.7794 4.56348 30.3978 4.56348 30V24C4.56348 23.6022 4.40544 23.2206 4.12414 22.9393C3.84283 22.658 3.4613 22.5 3.06348 22.5C2.66565 22.5 2.28412 22.658 2.00282 22.9393C1.72151 23.2206 1.56348 23.6022 1.56348 24V30C1.56348 31.1935 2.03758 32.3381 2.8815 33.182C3.72541 34.0259 4.87 34.5 6.06348 34.5H12.0635C12.4613 34.5 12.8428 34.342 13.1241 34.0607C13.4054 33.7794 13.5635 33.3978 13.5635 33C13.5635 32.6022 13.4054 32.2206 13.1241 31.9393C12.8428 31.658 12.4613 31.5 12.0635 31.5ZM33.0635 22.5C32.6657 22.5 32.2841 22.658 32.0028 22.9393C31.7215 23.2206 31.5635 23.6022 31.5635 24V30C31.5635 30.3978 31.4054 30.7794 31.1241 31.0607C30.8428 31.342 30.4613 31.5 30.0635 31.5H24.0635C23.6657 31.5 23.2841 31.658 23.0028 31.9393C22.7215 32.2206 22.5635 32.6022 22.5635 33C22.5635 33.3978 22.7215 33.7794 23.0028 34.0607C23.2841 34.342 23.6657 34.5 24.0635 34.5H30.0635C31.257 34.5 32.4015 34.0259 33.2455 33.182C34.0894 32.3381 34.5635 31.1935 34.5635 30V24C34.5635 23.6022 34.4054 23.2206 34.1241 22.9393C33.8428 22.658 33.4613 22.5 33.0635 22.5ZM30.0635 1.5H24.0635C23.6657 1.5 23.2841 1.65804 23.0028 1.93934C22.7215 2.22064 22.5635 2.60218 22.5635 3C22.5635 3.39782 22.7215 3.77936 23.0028 4.06066C23.2841 4.34196 23.6657 4.5 24.0635 4.5H30.0635C30.4613 4.5 30.8428 4.65804 31.1241 4.93934C31.4054 5.22064 31.5635 5.60218 31.5635 6V12C31.5635 12.3978 31.7215 12.7794 32.0028 13.0607C32.2841 13.342 32.6657 13.5 33.0635 13.5C33.4613 13.5 33.8428 13.342 34.1241 13.0607C34.4054 12.7794 34.5635 12.3978 34.5635 12V6C34.5635 4.80653 34.0894 3.66193 33.2455 2.81802C32.4015 1.97411 31.257 1.5 30.0635 1.5ZM3.06348 13.5C3.4613 13.5 3.84283 13.342 4.12414 13.0607C4.40544 12.7794 4.56348 12.3978 4.56348 12V6C4.56348 5.60218 4.72151 5.22064 5.00282 4.93934C5.28412 4.65804 5.66565 4.5 6.06348 4.5H12.0635C12.4613 4.5 12.8428 4.34196 13.1241 4.06066C13.4054 3.77936 13.5635 3.39782 13.5635 3C13.5635 2.60218 13.4054 2.22064 13.1241 1.93934C12.8428 1.65804 12.4613 1.5 12.0635 1.5H6.06348C4.87 1.5 3.72541 1.97411 2.8815 2.81802C2.03758 3.66193 1.56348 4.80653 1.56348 6V12C1.56348 12.3978 1.72151 12.7794 2.00282 13.0607C2.28412 13.342 2.66565 13.5 3.06348 13.5ZM15.0635 7.5H9.06348C8.66565 7.5 8.28412 7.65804 8.00282 7.93934C7.72151 8.22064 7.56348 8.60218 7.56348 9V15C7.56348 15.3978 7.72151 15.7794 8.00282 16.0607C8.28412 16.342 8.66565 16.5 9.06348 16.5H15.0635C15.4613 16.5 15.8428 16.342 16.1241 16.0607C16.4054 15.7794 16.5635 15.3978 16.5635 15V9C16.5635 8.60218 16.4054 8.22064 16.1241 7.93934C15.8428 7.65804 15.4613 7.5 15.0635 7.5ZM13.5635 13.5H10.5635V10.5H13.5635V13.5ZM21.0635 16.5H27.0635C27.4613 16.5 27.8428 16.342 28.1241 16.0607C28.4054 15.7794 28.5635 15.3978 28.5635 15V9C28.5635 8.60218 28.4054 8.22064 28.1241 7.93934C27.8428 7.65804 27.4613 7.5 27.0635 7.5H21.0635C20.6657 7.5 20.2841 7.65804 20.0028 7.93934C19.7215 8.22064 19.5635 8.60218 19.5635 9V15C19.5635 15.3978 19.7215 15.7794 20.0028 16.0607C20.2841 16.342 20.6657 16.5 21.0635 16.5ZM22.5635 10.5H25.5635V13.5H22.5635V10.5ZM15.0635 19.5H9.06348C8.66565 19.5 8.28412 19.658 8.00282 19.9393C7.72151 20.2206 7.56348 20.6022 7.56348 21V27C7.56348 27.3978 7.72151 27.7794 8.00282 28.0607C8.28412 28.342 8.66565 28.5 9.06348 28.5H15.0635C15.4613 28.5 15.8428 28.342 16.1241 28.0607C16.4054 27.7794 16.5635 27.3978 16.5635 27V21C16.5635 20.6022 16.4054 20.2206 16.1241 19.9393C15.8428 19.658 15.4613 19.5 15.0635 19.5ZM13.5635 25.5H10.5635V22.5H13.5635V25.5ZM21.0635 24C21.4613 24 21.8428 23.842 22.1241 23.5607C22.4054 23.2794 22.5635 22.8978 22.5635 22.5C22.9613 22.5 23.3428 22.342 23.6241 22.0607C23.9054 21.7794 24.0635 21.3978 24.0635 21C24.0635 20.6022 23.9054 20.2206 23.6241 19.9393C23.3428 19.658 22.9613 19.5 22.5635 19.5H21.0635C20.6657 19.5 20.2841 19.658 20.0028 19.9393C19.7215 20.2206 19.5635 20.6022 19.5635 21V22.5C19.5635 22.8978 19.7215 23.2794 20.0028 23.5607C20.2841 23.842 20.6657 24 21.0635 24ZM27.0635 19.5C26.6657 19.5 26.2841 19.658 26.0028 19.9393C25.7215 20.2206 25.5635 20.6022 25.5635 21V25.5C25.1657 25.5 24.7841 25.658 24.5028 25.9393C24.2215 26.2206 24.0635 26.6022 24.0635 27C24.0635 27.3978 24.2215 27.7794 24.5028 28.0607C24.7841 28.342 25.1657 28.5 25.5635 28.5H27.0635C27.4613 28.5 27.8428 28.342 28.1241 28.0607C28.4054 27.7794 28.5635 27.3978 28.5635 27V21C28.5635 20.6022 28.4054 20.2206 28.1241 19.9393C27.8428 19.658 27.4613 19.5 27.0635 19.5ZM21.0635 25.5C20.7668 25.5 20.4768 25.588 20.2301 25.7528C19.9834 25.9176 19.7912 26.1519 19.6777 26.426C19.5641 26.7001 19.5344 27.0017 19.5923 27.2926C19.6502 27.5836 19.793 27.8509 20.0028 28.0607C20.2126 28.2704 20.4799 28.4133 20.7708 28.4712C21.0618 28.5291 21.3634 28.4994 21.6375 28.3858C21.9116 28.2723 22.1459 28.08 22.3107 27.8334C22.4755 27.5867 22.5635 27.2967 22.5635 27C22.5635 26.6022 22.4054 26.2206 22.1241 25.9393C21.8428 25.658 21.4613 25.5 21.0635 25.5Z" fill="#F8FAFC"/>
</svg>
